<?xml version="1.0" standalone="no"?>
<!DOCTYPE svg PUBLIC "-//W3C//DTD SVG 20010904//EN"
 "http://www.w3.org/TR/2001/REC-SVG-20010904/DTD/svg10.dtd">
<svg version="1.0" xmlns="http://www.w3.org/2000/svg"
 width="1600.000000pt" height="1600.000000pt" viewBox="0 0 1600.000000 1600.000000"
 preserveAspectRatio="xMidYMid meet">
<metadata>
Created by potrace 1.11, written by Peter Selinger 2001-2013
</metadata>
<g transform="translate(0.000000,1600.000000) scale(0.100000,-0.100000)"
fill="#000000" stroke="none">
<path d="M7901 15334 c-198 -34 -350 -132 -457 -295 -24 -37 -53 -91 -65 -120
-44 -111 -46 -163 -45 -921 l1 -716 -41 -7 c-128 -19 -383 -73 -503 -106 -869
-242 -1608 -694 -2231 -1364 -47 -51 -105 -118 -202 -233 -53 -64 -195 -261
-271 -377 -70 -108 -243 -404 -257 -440 -2 -5 -28 -62 -58 -125 -108 -228
-237 -579 -277 -752 -2 -9 -11 -43 -19 -75 -25 -94 -61 -259 -71 -323 -2 -19
-7 -46 -9 -60 -16 -87 -34 -227 -41 -315 -4 -44 -9 -98 -12 -120 -3 -22 -6
-250 -8 -508 -1 -257 -4 -470 -7 -472 -2 -3 -45 -7 -94 -9 -148 -7 -210 -16
-379 -56 -557 -132 -1068 -547 -1320 -1073 -84 -176 -148 -371 -170 -517 -3
-20 -8 -47 -10 -60 -16 -79 -19 -316 -20 -1570 l0 -1385 665 0 665 0 1 1370
c0 754 4 1384 8 1400 4 17 10 40 12 53 36 189 211 391 402 462 66 25 164 46
211 45 l35 0 1 -1420 c1 -781 5 -1440 9 -1465 4 -25 9 -54 11 -65 39 -245 92
-408 201 -622 274 -538 797 -936 1384 -1052 197 -39 216 -40 755 -40 l430 -1
24 -62 c13 -35 49 -113 81 -175 126 -241 262 -416 471 -604 243 -218 615 -402
919 -455 25 -4 47 -8 50 -9 3 -1 34 -5 70 -9 36 -5 74 -10 85 -12 27 -6 312
-5 355 1 19 2 58 7 85 10 28 4 57 8 65 10 8 2 31 7 50 10 169 29 412 119 595
222 211 119 416 298 598 522 84 104 240 379 282 499 l19 52 440 1 c496 1 527
2 681 29 145 25 143 25 258 60 516 161 951 529 1198 1015 75 149 159 387 175
495 3 19 7 41 9 48 3 7 7 40 11 75 3 34 9 67 13 72 3 6 6 654 7 1440 l1 1430
54 -3 c69 -3 186 -35 249 -67 57 -29 148 -101 202 -160 51 -55 112 -174 139
-271 l22 -79 0 -1376 1 -1376 645 -1 c355 0 655 1 667 3 l21 5 -3 1417 c-1
780 -4 1434 -7 1453 -3 19 -8 51 -11 70 -37 263 -137 539 -278 764 -94 150
-214 296 -337 410 -24 23 -53 50 -65 61 -12 11 -39 34 -61 50 -22 17 -42 32
-45 35 -10 11 -157 107 -200 132 -230 132 -465 212 -742 252 -20 3 -83 8 -140
12 -56 3 -105 7 -107 10 -2 2 -5 212 -6 466 -1 255 -5 495 -9 533 -18 185 -24
235 -46 385 -34 230 -113 544 -195 780 -45 128 -82 227 -104 275 -10 22 -31
69 -47 105 -49 113 -154 319 -221 434 -58 100 -248 394 -262 406 -3 3 -33 41
-65 84 -228 306 -528 607 -896 899 -255 203 -700 459 -1045 602 -219 91 -570
204 -715 231 -14 3 -33 7 -42 10 -19 6 -31 8 -168 33 -58 11 -120 22 -138 25
-19 2 -36 7 -40 10 -3 3 -6 342 -7 753 -2 831 0 797 -71 938 -132 260 -416
407 -693 359z m347 -3348 c131 -9 237 -23 357 -46 28 -5 61 -11 75 -14 75 -13
354 -90 382 -106 10 -6 24 -10 31 -10 45 0 394 -159 566 -258 91 -52 316 -202
364 -241 12 -11 65 -54 117 -97 159 -131 363 -342 495 -512 6 -7 15 -18 21
-25 55 -64 220 -324 297 -470 155 -292 296 -709 333 -983 3 -27 8 -51 9 -54 2
-3 7 -37 10 -75 4 -38 8 -77 10 -87 15 -75 22 -385 11 -448 -45 -248 -220
-449 -465 -533 l-66 -22 -2750 -3 c-1876 -2 -2772 1 -2818 8 -258 40 -475 240
-542 500 -23 88 -23 302 0 500 3 25 7 65 10 90 5 39 28 178 39 235 24 118 75
303 120 431 53 154 160 393 211 474 12 19 23 38 24 42 10 39 215 345 318 473
97 121 317 346 433 444 105 88 107 90 185 147 388 284 832 483 1290 578 120
24 147 29 240 42 27 3 61 8 75 10 14 2 75 6 135 10 61 3 111 7 112 8 4 4 288
-3 371 -8z m-3498 -5222 c43 -14 91 -27 106 -30 15 -3 32 -8 37 -11 20 -12
270 -50 348 -53 109 -3 5398 -3 5506 0 45 2 108 7 140 12 32 4 74 11 93 13 44
7 206 49 285 74 33 10 62 15 65 11 7 -11 4 -2849 -3 -2880 -3 -14 -8 -36 -11
-49 -41 -189 -177 -361 -355 -447 -149 -74 108 -68 -2951 -69 -2209 -1 -2766
1 -2810 12 -215 50 -368 169 -464 359 -31 63 -41 94 -63 194 -6 25 -11 2890
-5 2890 2 0 38 -11 82 -26z"/>
<path d="M5865 9986 c-99 -23 -192 -64 -260 -116 -11 -8 -50 -45 -87 -83 -120
-120 -189 -304 -182 -478 12 -282 197 -526 463 -609 89 -28 105 -31 201 -30
161 0 324 61 439 164 31 28 59 56 63 61 3 6 18 24 32 40 37 42 92 158 112 235
54 203 -8 449 -152 609 -50 54 -149 128 -214 159 -116 54 -298 75 -415 48z"/>
<path d="M9865 9985 c-204 -44 -370 -174 -460 -360 -95 -197 -94 -403 3 -592
118 -232 347 -368 605 -362 112 3 170 16 264 59 234 108 384 335 387 585 1
140 -13 198 -77 326 -73 148 -220 273 -385 326 -92 30 -244 38 -337 18z"/>
</g>
</svg>
